<svg version="1.1" id="Layer_1" xmlns="http://www.w3.org/2000/svg" xmlns:xlink="http://www.w3.org/1999/xlink" x="0px" y="0px" width="729px" height="296px" viewBox="0 0 729 296" enable-background="new 0 0 729 296" xml:space="preserve">
            <g id="imac_1_">
                <g id="imac">
                    <g>
                        <rect x="319" y="240" fill="#C9C9C9" width="88" height="52.5"></rect>
                    </g>
                    <g>
                        <path fill="#E1E1E1" d="M553,236c0,7.7-6.3,14-14,14H187c-7.7,0-14-6.3-14-14v-23h380V236z"></path>
                    </g>
                    <g>
                        <path fill="#383838" d="M553,214H173V15c0-8.3,6.7-15,15-15h350c8.3,0,15,6.7,15,15V214z"></path>
                    </g>
                    <g>
                        <rect x="295" y="289" fill="#E1E1E1" width="136" height="7"></rect>
                    </g>
                    <g id="shadow">
                        <polygon fill="#B7B7B7" points="319,250 407,279 407,250             "></polygon>
                    </g>
                </g>
                <g id="screen">
                    <rect x="190" y="16" fill="#92BED6" width="346" height="182"></rect>
                </g>
                <g id="browser">
                    <g>
                        <rect x="298" y="36" fill="#FFFFFF" width="229" height="143"></rect>
                    </g>
                    <g>
                        <path fill="#FFFFFF" d="M527,34H298v-7.2c0-2.1,1.8-3.8,4-3.8h221c2.2,0,4,1.7,4,3.8V34z"></path>
                    </g>
                    <g>
                        <circle fill="#D85050" cx="306" cy="29" r="2"></circle>
                    </g>
                    <g>
                        <circle fill="#E2C444" cx="313" cy="29" r="2"></circle>
                    </g>
                    <g>
                        <circle fill="#6CC667" cx="320" cy="29" r="2"></circle>
                    </g>
                    <g id="header">
                        <g>
                            <rect x="298" y="34" fill="#9F9F9F" width="229" height="27"></rect>
                        </g>
                        <g>
                            <circle fill="#FFFFFF" cx="317" cy="47" r="7"></circle>
                        </g>
                        <g>
                            <g>
                                <rect x="501" y="42" fill="#FFFFFF" width="14" height="2"></rect>
                            </g>
                            <g>
                                <rect x="501" y="46" fill="#FFFFFF" width="14" height="2"></rect>
                            </g>
                            <g>
                                <rect x="501" y="50" fill="#FFFFFF" width="14" height="2"></rect>
                            </g>
                        </g>
                    </g>
                    <g id="footer">
                        <g>
                            <path fill="#9F9F9F" d="M523.3,188H301.7c-2,0-3.7-1.6-3.7-3.7V167h229v17.3C527,186.4,525.4,188,523.3,188z"></path>
                        </g>
                        <g>
                            <rect x="508" y="177" fill="#FFFFFF" width="9" height="2"></rect>
                            <rect x="478" y="177" fill="#FFFFFF" width="23.8" height="2"></rect>
                        </g>
                    </g>
                    <g>
                        <rect x="310" y="69" fill="#E5E1D0" width="67" height="89"></rect>
                    </g>
                    <g>
                        <rect x="316.9" y="82" fill="#353434" width="37.1" height="5"></rect>
                    </g>
                    <g>
                        <g>
                            <rect x="317" y="94" fill="#C1BFB4" width="50" height="2"></rect>
                        </g>
                        <g>
                            <rect x="317" y="102" fill="#C1BFB4" width="50" height="2"></rect>
                        </g>
                        <g>
                            <rect x="317.4" y="110" fill="#C1BFB4" width="35.6" height="2"></rect>
                        </g>
                    </g>
                    <g>
                        <rect x="316" y="130" fill="#C6463D" width="35" height="9"></rect>
                    </g>
                    <g>
                        <rect x="388" y="69" fill="#E5E1D0" width="127" height="89"></rect>
                    </g>
                    <g>
                        <g>
                            <rect x="437" y="85" fill="#C1BFB4" width="58" height="2"></rect>
                        </g>
                        <g>
                            <rect x="437" y="92" fill="#C1BFB4" width="58" height="2"></rect>
                        </g>
                        <g>
                            <rect x="437" y="100" fill="#C1BFB4" width="41" height="2"></rect>
                        </g>
                    </g>
                    <g>
                        <rect x="397" y="79" fill="#353434" width="30" height="30"></rect>
                    </g>
                    <g>
                        <g>
                            <rect x="437" y="124" fill="#C1BFB4" width="58" height="2"></rect>
                        </g>
                        <g>
                            <rect x="437" y="132" fill="#C1BFB4" width="58" height="2"></rect>
                        </g>
                        <g>
                            <rect x="437" y="139" fill="#C1BFB4" width="41" height="2"></rect>
                        </g>
                    </g>
                    <g>
                        <rect x="397" y="119" fill="#353434" width="30" height="30"></rect>
                    </g>
                    <g>
                        <path fill="#666666" d="M406,92c1.1,0,2-0.9,2-2s-0.9-2-2-2s-2,0.9-2,2S404.9,92,406,92z"></path>
                        <polygon fill="#666666" points="415,94.3 409,99 405.5,95.9 400,100 400,106 424,106 424,100          "></polygon>
                    </g>
                    <g>
                        <path fill="#666666" d="M406,131c1.1,0,2-0.9,2-2s-0.9-2-2-2s-2,0.9-2,2C404,130.1,404.9,131,406,131z"></path>
                        <polygon fill="#666666" points="415,133.3 409,138 405.5,134.9 400,139 400,145 424,145 424,139           "></polygon>
                    </g>
                </g>
                <path fill="#383838" d="M334,174c0,2.2-1.8,4-4,4H208c-2.2,0-4-1.8-4-4V61c0-2.2,1.8-4,4-4h122c2.2,0,4,1.8,4,4V174z"></path>
                <path fill="#232323" d="M212,178h-5c-2.2,0-4-1.8-4-4V61c0-2.2,1.8-4,4-4h5V178z"></path>
                <g id="sublime-text-mask">
                    <g>
                        <defs>
                            <path id="SVGID_1_" d="M334,174c0,2.2-1.8,4-4,4H208c-2.2,0-4-1.8-4-4V61c0-2.2,1.8-4,4-4h122c2.2,0,4,1.8,4,4V174z"></path>
                        </defs>
                        <clipPath id="SVGID_2_">
                            <use xlink:href="#SVGID_1_" overflow="visible"></use>
                        </clipPath>
                        <g id="sublime-text" clip-path="url(#SVGID_2_)">
                            <g id="sublime-text-2">
                                <g>
                                    <path fill="#C6463D" d="M267,259c0,0.5-0.4,1-1,1h-18c-0.6,0-1-0.5-1-1v-2c0-0.5,0.4-1,1-1h18c0.6,0,1,0.5,1,1V259z"></path>
                                </g>
                                <g>
                                    <path fill="#E5E1D0" d="M277,238c0,0.6-0.4,1-1,1h-18c-0.5,0-1-0.4-1-1v-2c0-0.6,0.5-1,1-1h18c0.6,0,1,0.4,1,1V238z"></path>
                                </g>
                                <g>
                                    <path fill="#FFFFFF" d="M282,207v-2c0-0.5-0.5-1-1-1h-18c-0.5,0-1,0.5-1,1v2c0,0.5,0.5,1,1,1h18C281.5,208,282,207.5,282,207z
                                        "></path>
                                    <path fill="#FFFFFF" d="M291,214h-18c-0.5,0-1,0.5-1,1v2c0,0.5,0.5,1,1,1h18c0.5,0,1-0.5,1-1v-2C292,214.5,291.5,214,291,214z
                                        "></path>
                                </g>
                                <g>
                                    <path fill="#424242" d="M223,176h18c0.5,0,1-0.5,1-1v-2c0-0.5-0.5-1-1-1h-18c-0.5,0-1,0.5-1,1v2C222,175.5,222.5,176,223,176z
                                        "></path>
                                    <path fill="#424242" d="M223,187h18c0.5,0,1-0.5,1-1v-2c0-0.5-0.5-1-1-1h-18c-0.5,0-1,0.5-1,1v2C222,186.5,222.5,187,223,187z
                                        "></path>
                                    <path fill="#424242" d="M232,194v2c0,0.5,0.5,1,1,1h18c0.5,0,1-0.5,1-1v-2c0-0.5-0.5-1-1-1h-18C232.5,193,232,193.5,232,194z"></path>
                                    <path fill="#424242" d="M236,205v2c0,0.5,0.5,1,1,1h18c0.5,0,1-0.5,1-1v-2c0-0.5-0.4-1-1-1h-18C236.5,204,236,204.5,236,205z"></path>
                                    <path fill="#424242" d="M266,214h-18c-0.5,0-1,0.5-1,1v2c0,0.5,0.5,1,1,1h18c0.5,0,1-0.5,1-1v-2C267,214.5,266.6,214,266,214z
                                        "></path>
                                    <path fill="#424242" d="M256,225h-18c-0.5,0-1,0.5-1,1v2c0,0.5,0.5,1,1,1h18c0.5,0,1-0.5,1-1v-2C257,225.5,256.6,225,256,225z
                                        "></path>
                                    <path fill="#424242" d="M251,235h-18c-0.5,0-1,0.5-1,1v2c0,0.5,0.5,1,1,1h18c0.5,0,1-0.5,1-1v-2C252,235.5,251.6,235,251,235z
                                        "></path>
                                    <path fill="#424242" d="M251,246h-18c-0.5,0-1,0.5-1,1v2c0,0.5,0.5,1,1,1h18c0.5,0,1-0.5,1-1v-2C252,246.5,251.6,246,251,246z
                                        "></path>
                                    <path fill="#424242" d="M241,256h-18c-0.5,0-1,0.5-1,1v2c0,0.5,0.5,1,1,1h18c0.5,0,1-0.5,1-1v-2C242,256.5,241.6,256,241,256z
                                        "></path>
                                    <path fill="#424242" d="M241,267h-18c-0.5,0-1,0.5-1,1v2c0,0.5,0.5,1,1,1h18c0.5,0,1-0.5,1-1v-2C242,267.5,241.6,267,241,267z
                                        "></path>
                                </g>
                            </g>
                            <g id="sublime-text-1">
                                <g>
                                    <path fill="#C6463D" d="M267,153c0,0.5-0.4,1-1,1h-18c-0.6,0-1-0.5-1-1v-2c0-0.6,0.4-1,1-1h18c0.6,0,1,0.4,1,1V153z"></path>
                                </g>
                                <g>
                                    <path fill="#E5E1D0" d="M277,132c0,0.5-0.4,1-1,1h-18c-0.5,0-1-0.5-1-1v-2c0-0.6,0.5-1,1-1h18c0.6,0,1,0.4,1,1V132z"></path>
                                </g>
                                <g>
                                    <path fill="#FFFFFF" d="M282,101v-2c0-0.5-0.5-1-1-1h-18c-0.5,0-1,0.5-1,1v2c0,0.5,0.5,1,1,1h18C281.5,102,282,101.6,282,101z
                                        "></path>
                                    <path fill="#FFFFFF" d="M291,108h-18c-0.5,0-1,0.5-1,1v2c0,0.5,0.5,1,1,1h18c0.5,0,1-0.5,1-1v-2C292,108.5,291.5,108,291,108z
                                        "></path>
                                </g>
                                <g>
                                    <path fill="#424242" d="M223,70h18c0.5,0,1-0.5,1-1v-2c0-0.5-0.5-1-1-1h-18c-0.5,0-1,0.5-1,1v2C222,69.6,222.5,70,223,70z"></path>
                                    <path fill="#424242" d="M223,81h18c0.5,0,1-0.5,1-1v-2c0-0.5-0.5-1-1-1h-18c-0.5,0-1,0.5-1,1v2C222,80.6,222.5,81,223,81z"></path>
                                    <path fill="#424242" d="M232,88v2c0,0.5,0.5,1,1,1h18c0.5,0,1-0.5,1-1v-2c0-0.5-0.5-1-1-1h-18C232.5,87,232,87.5,232,88z"></path>
                                    <path fill="#424242" d="M236,99v2c0,0.5,0.5,1,1,1h18c0.5,0,1-0.5,1-1v-2c0-0.5-0.4-1-1-1h-18C236.5,98,236,98.5,236,99z"></path>
                                    <path fill="#424242" d="M266,108h-18c-0.5,0-1,0.5-1,1v2c0,0.5,0.5,1,1,1h18c0.5,0,1-0.5,1-1v-2C267,108.5,266.6,108,266,108z
                                        "></path>
                                    <path fill="#424242" d="M256,119h-18c-0.5,0-1,0.5-1,1v2c0,0.5,0.5,1,1,1h18c0.5,0,1-0.5,1-1v-2C257,119.5,256.6,119,256,119z
                                        "></path>
                                    <path fill="#424242" d="M251,129h-18c-0.5,0-1,0.5-1,1v2c0,0.5,0.5,1,1,1h18c0.5,0,1-0.5,1-1v-2C252,129.5,251.6,129,251,129z
                                        "></path>
                                    <path fill="#424242" d="M251,140h-18c-0.5,0-1,0.5-1,1v2c0,0.5,0.5,1,1,1h18c0.5,0,1-0.5,1-1v-2C252,140.5,251.6,140,251,140z
                                        "></path>
                                    <path fill="#424242" d="M241,150h-18c-0.5,0-1,0.5-1,1v2c0,0.5,0.5,1,1,1h18c0.5,0,1-0.5,1-1v-2C242,150.5,241.6,150,241,150z
                                        "></path>
                                    <path fill="#424242" d="M241,161h-18c-0.5,0-1,0.5-1,1v2c0,0.5,0.5,1,1,1h18c0.5,0,1-0.5,1-1v-2C242,161.5,241.6,161,241,161z
                                        "></path>
                                </g>
                            </g>
                        </g>
                    </g>
                </g>
            </g>
            <g id="ipad">
                <g>
                    <path fill="#232323" d="M176.7,296H76.3c-4,0-7.3-3.3-7.3-7.3V154.3c0-4,3.3-7.3,7.3-7.3h100.3c4,0,7.3,3.3,7.3,7.3v134.4
                        C184,292.7,180.7,296,176.7,296z"></path>
                    <rect x="76" y="181" fill="#FFFFFF" width="100" height="97"></rect>
                    <ellipse fill="#333333" cx="126.5" cy="286.5" rx="4.5" ry="4.5"></ellipse>
                    <circle fill="#333333" cx="127" cy="156" r="2"></circle>
                    <g id="header_1_">
                        <g>
                            <rect x="76" y="165" fill="#9F9F9F" width="100" height="16"></rect>
                        </g>
                        <g>
                            <ellipse fill="#FFFFFF" cx="86.8" cy="172.9" rx="4.2" ry="4.2"></ellipse>
                        </g>
                        <g>
                            <g>
                                <rect x="162" y="169" fill="#FFFFFF" width="9" height="1"></rect>
                            </g>
                            <g>
                                <rect x="162" y="172" fill="#FFFFFF" width="9" height="1"></rect>
                            </g>
                            <g>
                                <rect x="162" y="175" fill="#FFFFFF" width="9" height="1"></rect>
                            </g>
                        </g>
                    </g>
                    <g>
                        <rect x="82" y="187" fill="#E5E1D0" width="89" height="85"></rect>
                    </g>
                    <g>
                        <g>
                            <rect x="128" y="202" fill="#C1BFB4" width="34" height="2"></rect>
                        </g>
                        <g>
                            <rect x="128" y="209" fill="#C1BFB4" width="34" height="2"></rect>
                        </g>
                        <g>
                            <rect x="128" y="216" fill="#C1BFB4" width="24" height="2"></rect>
                        </g>
                    </g>
                    <g>
                        <rect x="92" y="197" fill="#353434" width="27" height="27"></rect>
                    </g>
                    <g>
                        <g>
                            <rect x="128" y="238" fill="#C1BFB4" width="34" height="2"></rect>
                        </g>
                        <g>
                            <rect x="128" y="245" fill="#C1BFB4" width="34" height="2"></rect>
                        </g>
                        <g>
                            <rect x="128" y="252" fill="#C1BFB4" width="24" height="2"></rect>
                        </g>
                    </g>
                    <g>
                        <rect x="92" y="233" fill="#353434" width="27" height="27"></rect>
                    </g>
                    <g>
                        <path fill="#666666" d="M99,209c1.1,0,2-0.9,2-2s-0.9-2-2-2s-2,0.9-2,2S97.9,209,99,209z"></path>
                        <polygon fill="#666666" points="108,210 102,215 99,212 94,216 94,221 116,221 116,215            "></polygon>
                    </g>
                    <g>
                        <path fill="#666666" d="M99,245c1.1,0,2-0.9,2-2s-0.9-2-2-2s-2,0.9-2,2S97.9,245,99,245z"></path>
                        <polygon fill="#666666" points="108,246 102,250 99,248 94,251 94,257 116,257 116,251            "></polygon>
                    </g>
                </g>
            </g>
            <g id="iphone">
                <g>
                    <path fill="#232323" d="M598,296h-48c-3.5,0-6-2.5-6-6v-89.6c0-3.5,2.8-6.4,6.4-6.4h47.3c3.5,0,6.4,2.9,6.4,6.4V289
                        C604,292.5,601.5,296,598,296z"></path>
                    <circle fill="#333333" cx="574" cy="288" r="4"></circle>
                    <path fill="#333333" d="M579.2,201h-10.4c-0.4,0-0.8-0.3-0.8-0.7v-0.7c0-0.4,0.4-0.7,0.8-0.7h10.4c0.4,0,0.8,0.3,0.8,0.7v0.7
                        C580,200.7,579.6,201,579.2,201z"></path>
                    <g>
                        <rect x="549" y="219" fill="#E5E1D0" width="50" height="60"></rect>
                    </g>
                    <g>
                        <g>
                            <rect x="571" y="225" fill="#C1BFB4" width="25" height="2"></rect>
                        </g>
                        <g>
                            <rect x="571" y="229" fill="#C1BFB4" width="25" height="2"></rect>
                        </g>
                        <g>
                            <rect x="571" y="233" fill="#C1BFB4" width="18" height="2"></rect>
                        </g>
                    </g>
                    <g>
                        <rect x="552" y="223" fill="#353434" width="15" height="15"></rect>
                    </g>
                    <g>
                        <circle fill="#666666" cx="556" cy="228" r="1"></circle>
                        <polygon fill="#666666" points="560.9,230.1 558.1,232.5 556.5,230.9 554,233 554,236 565,236 565,233             "></polygon>
                    </g>
                    <g>
                        <g>
                            <rect x="571" y="243" fill="#C1BFB4" width="24" height="2"></rect>
                        </g>
                        <g>
                            <rect x="571" y="247" fill="#C1BFB4" width="24" height="2"></rect>
                        </g>
                        <g>
                            <rect x="571" y="251" fill="#C1BFB4" width="18" height="2"></rect>
                        </g>
                    </g>
                    <g>
                        <rect x="552" y="241" fill="#353434" width="15" height="15"></rect>
                    </g>
                    <g>
                        <circle fill="#666666" cx="556" cy="246" r="1"></circle>
                        <polygon fill="#666666" points="560.9,248 558.1,250.4 556.5,248.9 554,250.9 554,254 565,254 565,250.9           "></polygon>
                    </g>
                    <g>
                        <g>
                            <rect x="571" y="261" fill="#C1BFB4" width="24" height="2"></rect>
                        </g>
                        <g>
                            <rect x="571" y="265" fill="#C1BFB4" width="24" height="2"></rect>
                        </g>
                        <g>
                            <rect x="571" y="269" fill="#C1BFB4" width="18" height="2"></rect>
                        </g>
                    </g>
                    <g>
                        <rect x="552" y="259" fill="#353434" width="15" height="15"></rect>
                    </g>
                    <g>
                        <circle fill="#666666" cx="556" cy="264" r="1"></circle>
                        <polygon fill="#666666" points="560.9,266.2 558.1,268.5 556.5,267 554,269 554,272 565,272 565,269           "></polygon>
                    </g>
                    <g id="header_2_">
                        <g>
                            <rect x="549" y="208" fill="#9F9F9F" width="50" height="11"></rect>
                        </g>
                        <g>
                            <ellipse fill="#FFFFFF" cx="555" cy="214" rx="3" ry="3"></ellipse>
                        </g>
                        <g>
                            <g>
                                <rect x="588" y="211" fill="#FFFFFF" width="8" height="1"></rect>
                            </g>
                            <g>
                                <rect x="588" y="213" fill="#FFFFFF" width="8" height="1"></rect>
                            </g>
                            <g>
                                <rect x="588" y="215" fill="#FFFFFF" width="8" height="1"></rect>
                            </g>
                        </g>
                    </g>
                </g>
            </g>
            <g id="cactus">
                <g>
                    <path fill="#67A05F" d="M45.8,204.3h-1.5c-12.8,0-23.2,10.3-23.2,23V266h48v-38.7C69,214.6,58.6,204.3,45.8,204.3z"></path>
                    <rect x="14" y="266" fill="#666666" width="62" height="30"></rect>
                    <path fill="#55844D" d="M45.8,204.2H45V266h24v-38.8C69,214.5,58.6,204.2,45.8,204.2z"></path>
                    <rect y="250" fill="#383838" width="90" height="20"></rect>
                    <polygon fill="#4C4C4C" points="14,270 76,289 76,269.9      "></polygon>
                    <line fill="none" stroke="#E5E1D0" stroke-width="2" stroke-miterlimit="10" x1="23.7" y1="240.2" x2="18.2" y2="235.3"></line>
                    <line fill="none" stroke="#E5E1D0" stroke-width="2" stroke-miterlimit="10" x1="66.7" y1="237.7" x2="72.2" y2="235.3"></line>
                    <line fill="none" stroke="#E5E1D0" stroke-width="2" stroke-miterlimit="10" x1="60.2" y1="219.2" x2="61.7" y2="214.2"></line>
                    <line fill="none" stroke="#E5E1D0" stroke-width="2" stroke-miterlimit="10" x1="35.7" y1="219.2" x2="33.2" y2="216.7"></line>
                    <line fill="none" stroke="#E5E1D0" stroke-width="2" stroke-miterlimit="10" x1="48.2" y1="228.7" x2="52.2" y2="224.2"></line>
                    <line fill="none" stroke="#E5E1D0" stroke-width="2" stroke-miterlimit="10" x1="38.2" y1="237.7" x2="35.7" y2="232.7"></line>
                    <line fill="none" stroke="#E5E1D0" stroke-width="2" stroke-miterlimit="10" x1="39.2" y1="206.1" x2="36.7" y2="203.2"></line>
                    <line fill="none" stroke="#E5E1D0" stroke-width="2" stroke-miterlimit="10" x1="23.7" y1="221.2" x2="21.2" y2="214.2"></line>
                    <line fill="none" stroke="#E5E1D0" stroke-width="2" stroke-miterlimit="10" x1="54.7" y1="245.7" x2="56.9" y2="240.2"></line>
                    <line fill="none" stroke="#E5E1D0" stroke-width="2" stroke-miterlimit="10" x1="54.7" y1="208.7" x2="56.9" y2="205.1"></line>
                </g>
            </g>
            <g id="books">
                <g id="book-css">
                    <rect x="614" y="267" fill="#92BED6" width="36" height="29"></rect>
                    <rect x="614" y="180" fill="#E1E1E1" width="36" height="87"></rect>
                    <rect x="632" y="180" opacity="0.1" enable-background="new    " width="18" height="116"></rect>
                    <g>
                        <path fill="#383838" d="M626.8,224.2c0-3.2,1.7-4.7,5.2-4.7c1.7,0,3,0.4,4,1.3c0.9,0.9,1.4,2.1,1.4,3.7c0,1.2-0.2,2.2-0.7,3.2
                            l-2.1-0.8c0.2-0.4,0.3-0.8,0.4-1.2s0.2-0.8,0.2-1.1c0-1.4-1-2.2-3.1-2.2c-2,0-3,0.7-3,2.2c0,0.5,0.1,1,0.2,1.5
                            c0.1,0.5,0.4,0.9,0.7,1.4h-2.4c-0.3-0.4-0.5-0.9-0.6-1.4C626.8,225.5,626.8,224.9,626.8,224.2z"></path>
                        <path fill="#383838" d="M630,236.8c-1,0-1.8-0.4-2.4-1.1c-0.5-0.7-0.8-1.8-0.8-3.2c0-0.7,0-1.4,0.1-1.9s0.2-1,0.4-1.5h2.3
                            c-0.2,0.5-0.4,1.1-0.6,1.7c-0.2,0.6-0.2,1.2-0.2,1.7c0,1,0.3,1.5,0.9,1.5c0.2,0,0.4-0.1,0.5-0.2c0.1-0.1,0.3-0.4,0.5-0.7
                            s0.4-0.8,0.6-1.3c0.3-0.8,0.6-1.4,0.9-1.7c0.3-0.4,0.6-0.6,1-0.8s0.8-0.3,1.3-0.3c0.9,0,1.6,0.4,2.1,1c0.5,0.7,0.7,1.7,0.7,3
                            c0,1.2-0.3,2.4-0.8,3.6l-2-0.8c0.2-0.5,0.4-1,0.5-1.4s0.2-0.9,0.2-1.4c0-0.8-0.2-1.2-0.7-1.2c-0.2,0-0.5,0.1-0.6,0.4
                            c-0.2,0.3-0.5,0.8-0.8,1.7c-0.3,0.8-0.6,1.4-0.9,1.7c-0.3,0.4-0.6,0.6-1,0.8C630.9,236.7,630.5,236.8,630,236.8z"></path>
                        <path fill="#383838" d="M630,246c-1,0-1.8-0.4-2.4-1.1c-0.5-0.7-0.8-1.8-0.8-3.2c0-0.7,0-1.4,0.1-1.9s0.2-1,0.4-1.5h2.3
                            c-0.2,0.5-0.4,1.1-0.6,1.7c-0.2,0.6-0.2,1.2-0.2,1.7c0,1,0.3,1.5,0.9,1.5c0.2,0,0.4-0.1,0.5-0.2c0.1-0.1,0.3-0.4,0.5-0.7
                            s0.4-0.8,0.6-1.3c0.3-0.8,0.6-1.4,0.9-1.7c0.3-0.4,0.6-0.6,1-0.8s0.8-0.3,1.3-0.3c0.9,0,1.6,0.4,2.1,1c0.5,0.7,0.7,1.7,0.7,3
                            c0,1.2-0.3,2.4-0.8,3.6l-2-0.8c0.2-0.5,0.4-1,0.5-1.4s0.2-0.9,0.2-1.4c0-0.8-0.2-1.2-0.7-1.2c-0.2,0-0.5,0.1-0.6,0.4
                            c-0.2,0.3-0.5,0.8-0.8,1.7c-0.3,0.8-0.6,1.4-0.9,1.7c-0.3,0.4-0.6,0.6-1,0.8C630.9,245.9,630.5,246,630,246z"></path>
                    </g>
                </g>
                <g id="book-html">
                    <rect x="650" y="180" fill="#383838" width="30" height="116"></rect>
                    <rect x="650" y="158" fill="#383838" width="30" height="7"></rect>
                    <g>
                        <path fill="#FFFFFF" d="M660.8,207.9v-2.4h4.9V201h-4.9v-2.4h11.4v2.4h-4.5v4.5h4.5v2.4H660.8z"></path>
                        <path fill="#FFFFFF" d="M660.8,215.2v-2.4h9.4v-3.1h2v8.6h-2v-3.1H660.8z"></path>
                        <path fill="#FFFFFF" d="M660.8,224.9l8.9-2.7v-0.1c-1.8,0.1-3,0.1-3.6,0.1h-5.3V220h11.4v3.3l-8.7,2.7l0,0l8.7,2.9v3.3h-11.4V230
                            h5.4c0.3,0,0.5,0,0.9,0c0.3,0,1.2,0,2.6,0.1V230l-8.9-2.9L660.8,224.9L660.8,224.9z"></path>
                        <path fill="#FFFFFF" d="M660.8,235.1h11.4v2.4h-9.4v4.6h-2V235.1z"></path>
                    </g>
                    <rect x="650" y="165" fill="#E1E1E1" width="30" height="15"></rect>
                    <rect x="650" y="267" fill="#E1E1E1" width="30" height="29"></rect>
                    <rect x="665" y="158" opacity="0.2" enable-background="new    " width="15" height="138"></rect>
                </g>
                <g id="book-js">
                    
                        <rect x="702.5" y="268.4" transform="matrix(-0.9674 0.2534 -0.2534 -0.9674 1475.9391 371.8476)" fill="#383838" width="23" height="25.1"></rect>
                    
                        <rect x="689.9" y="195.4" transform="matrix(-0.9674 0.2534 -0.2534 -0.9674 1438.9562 280.1828)" fill="#E5E1D0" width="23" height="74.7"></rect>
                    
                        <rect id="book-shadow" x="704.3" y="193.5" transform="matrix(-0.9674 0.2534 -0.2534 -0.9674 1458.6711 298.9892)" opacity="0.1" enable-background="new    " width="11.5" height="99.8"></rect>
                    <g>
                        <path fill="#383838" d="M695.6,234.1c-0.1-0.4-0.2-0.8-0.2-1.1l1.5-0.4c0,0.3,0,0.6,0.1,0.9c0.1,0.4,0.3,0.7,0.6,0.8
                            s0.7,0.1,1.3,0l8.2-2.2l0.5,1.9l-8.2,2.1c-1,0.3-1.9,0.2-2.5-0.1S695.8,235,695.6,234.1z"></path>
                        <path fill="#383838" d="M703.3,243c-0.8,0.2-1.5,0.1-2.1-0.4s-1-1.2-1.3-2.2c-0.2-0.9-0.3-1.8-0.1-2.6l1.7-0.5
                            c-0.1,0.7-0.2,1.2-0.2,1.6c0,0.4,0,0.8,0.1,1.2s0.3,0.7,0.5,0.9s0.5,0.2,0.8,0.1c0.2,0,0.3-0.1,0.4-0.3s0.2-0.3,0.3-0.5
                            s0.2-0.6,0.3-1.3c0.1-0.6,0.2-1.1,0.4-1.4s0.4-0.6,0.6-0.9s0.6-0.4,1-0.5c0.8-0.2,1.5-0.1,2,0.3s1,1.1,1.2,2
                            c0.1,0.5,0.2,0.9,0.2,1.3c0,0.4,0,0.9-0.1,1.4l-1.6-0.2c0.1-0.5,0.1-0.9,0.1-1.3s0-0.6-0.1-0.9c-0.1-0.4-0.2-0.6-0.5-0.7
                            s-0.5-0.2-0.7-0.1c-0.2,0-0.3,0.1-0.4,0.2c-0.1,0.1-0.2,0.3-0.3,0.5s-0.2,0.6-0.3,1.3c-0.2,0.9-0.4,1.6-0.7,2
                            S703.8,242.8,703.3,243z"></path>
                    </g>
                </g>
            </g>
</svg>